<?xml version="1.0" encoding="UTF-8" standalone="no"?>
<svg viewBox="0 0 2198.3142 454.6207" xmlns="http://www.w3.org/2000/svg">
<defs>
<radialGradient cx="391.84164" cy="1186.6478" gradientTransform="matrix(1,0,0,.45348,0,648.53071)" gradientUnits="userSpaceOnUse" id="radialGradient5126" r="101.91104">
<stop offset="0"/>
<stop offset="1" stop-opacity="0"/>
</radialGradient>
</defs>
<g transform="translate(1061.1816,-803.29076)">
<path d="m-1002.8571,869.50507h2108.5715v357.14282h-2108.5715z" fill="#1a1a1a" opacity=".9"/>
<path d="m877.14286,1155.2193c-15.578-4.3033-52.11916-2.8572-77.14286-2.8572-39.13233,0-31.42857,8.5131-31.42857,45.7143 0,17.9402-5.50708,28.5714 14.28571,28.5714h60c12.44422.0001 27.92089-9.6747 37.14286-14.2856 10.05247-5.0263.28229-49.2943-2.85714-57.1429z" fill="#808080" stroke="#000"/>
<path d="m285.71428,1063.7908c17.12168-8.5608-38.00024-5.7143-57.14286-5.7143-21.91792,0-20,21.308-20,37.1429 0,22.3166 11.27023,28.5714 31.42857,28.5714 13.54638,0 26.69629,0 45.71429-2.8571 25.69385-3.8601-2.00093-29.6441 0-57.1429z" fill="#808080" stroke="#000"/>
<path d="m731.42857,1092.3623c15.35668,0-30.3576-5.7143-45.71429-5.7143-15.26685,0-27.15376,17.1647-31.42857,25.7143-8.13352,16.267-2.97425,34.1686 5.71429,42.8571 7.90476,7.9048 32.39173-5.4735 42.85714-2.8571 16.15337,4.0383 30.0129,17.1428 48.57143,17.1428 9.76304,0 14.28571-30.7714 14.28571-40 0-16.0298 6.89674-37.1429-11.42857-37.1429h-22.85714v.0001z" fill="#666" stroke="#000"/>
<path d="m-82.85714,1098.0765c-5.6922,0-38.18827-13.1185-54.28571-17.1429-14.07065-3.5176-33.85888,0-48.57143,0-7.27462,0-24.22589,12.113-34.28572,17.1429-3.80573,1.9029 16.09415,32.948 17.14286,37.1429 1.23504,4.9401 33.91848,4.0102 40,8.5714 12.31497,9.2362 37.44015,8.2741 42.85714,2.8571 2.66772-2.6677 36.50628,11.4286 45.71429,11.4286 16.47678,0 11.42857-27.73 11.42857-40 0-30.2942-14.17206-18.543-42.85715-25.7143" fill="#666" stroke="#000"/>
<path d="m111.7083,1092.3841c0-4.127-3.11488,34.8351-3.11488,71.4058v54.2683c0,12.5367 31.52239,8.5687 43.60838,8.5687 22.94085,0 24.91908,13.7735 24.91908-17.1374 0-17.4966-3.11489-31.4367-3.11489-48.5559v-54.2683c0-17.4954-17.42178-11.425-34.26373-11.425-10.66222,0-16.63249-.7653-28.03396-2.8562z" fill="#808080" stroke="#000" stroke-width="1.04396"/>
<path d="m502.85714,1166.6479c-6.65707,0 42.28255,8.5714 80,8.5714 23.53186,0 55.53106-1.8315 74.28571,2.8572 9.47194,2.3679-5.64729,54.1517-5.71428,54.2857-3.69128,7.3825-65.81478-3.5966-74.28572-5.7143-28.72443-7.1811-60.92532,4.7889-77.14285-11.4286-5.57297-5.573 1.57936-42.1826 2.85714-48.5714z" fill="#666" stroke="#000"/>
<path d="m511.42858,1103.7908c-20.30382-20.3038 57.39103,3.8509 85.71428,8.5714 13.27686,2.2128-.45539,47.9912-2.85714,60-.7275,3.6375-55.03701-3.7593-62.85714-5.7143-23.84867-5.9622-42.78355,11.1342-34.28572-22.8571 1.17781-4.7112 1.90476-9.5238 2.85714-14.2857 4.67381-23.3691-9.86153.8983 11.42858-25.7143z" fill="#999" stroke="#000"/>
<path d="m665.71428,1160.9336c.19672-.9836-5.19773,30.6376 2.85715,62.8571 4.16416,16.6567 34.77191-1.307 51.42857,2.8572 21.01204,5.253 29.20681-3.4926 37.14285-11.4286 21.81637-21.8164.68244-57.1429-22.85714-57.1429-23.60892,0-48.93867,2.8571-68.57143,2.8571v.0001z" fill="#666" stroke="#000"/>
<path d="m-223.84382,958.16526c-34.22392,0 0,47.54474 0,71.31704 0,21.6147-10.30793,41.0002 16.42748,45.6429 45.08874,7.8299 61.60305,1.5553 61.60305-25.6741 0-26.625-4.10687-53.25001-4.10687-79.87504 0-23.83563-19.0251-18.46684-49.28244-14.26341-8.16534,1.13434-16.42748,1.90178-24.64123,2.85268l1e-005-7e-005z" fill="#808080" stroke="#000" stroke-width="1.19798"/>
<path d="m294.38387,1215.6738c-8.43145,2.4498 48.76797,12.4397 94.19084,12.4397 31.10514,0 67.70151,4.1466 91.33657,4.1466 .77259,0 18.9435-84.8344 11.41707-82.9314-13.60314,3.4395-74.59003-8.2931-79.91949-8.2931h-65.64816-45.66829c-13.86853,0-8.5628,38.8453-8.5628,53.9054 0,7.0478 1.90285,13.8219 2.85427,20.7328h-1e-005z" fill="#999" stroke="url(#radialGradient5126)" stroke-width="1.20409"/>
<path d="m394.28572,1126.6479c0,16.6326-4.70744-44.5374 11.42857-48.5714 13.60556-3.4014 47.97597,5.7143 65.71429,5.7143 30.69281,0 25.71428,4.4618 25.71428,34.2857 0,25.0852-1.19547,22.8571-25.71428,22.8571h-54.28572-20" fill="#b3b3b3" stroke="#000"/>
<path d="m37.14285,1069.505c-4.13775,0-5.71429,40.9899-5.71429,54.2857 0,1.6515 69.31102-1.2908 77.14285-2.8571 4.68645-.9373-2.18835-60.182-2.85714-62.8571-.44224-1.769-45.24376,0-48.57143,0h-5.71429" fill="#b3b3b3" stroke="#000"/>
<path d="m605.71429,1072.3622c-20,0 0,40 0,60 0,15.1877 3.82726,26.6844 11.42857,34.2857 9.99125,9.9913 31.42857-1.451 31.42857-11.4286 0-18.2462-1.25754-37.8269 2.85714-54.2857 5.82285-23.2914-4.37029-22.8571-22.85714-22.8571-11.0391,0-9.25507-.2735-22.85714-5.7143z" fill="#b3b3b3" stroke="#000"/>
<path d="m31.42857,1132.3622c-.13619,0-2.85714,60.0257-2.85714,74.2857 0,21.2864 5.95041,17.1429 25.71429,17.1429 13.42421,0 26.74081,6.8862 42.85714,2.8571 14.56574-3.6414 8.43915-39.4709 11.42857-51.4286 2.80897-11.2359 5.71428,7.3385 5.71428-22.8571 0-2.2409-8.57143,3.7103-8.57143-14.2858 0-20.9523-27.61905-5.7142-48.57143-5.7142h-25.71429 1e-005z" fill="#999" stroke="#000"/>
<path d="m186.01887,1120.94c-26.3851,0 0,51.4225 0,77.1337 0,42.3155 1.53493,32.604 43.97516,25.7113 44.74015-7.2663 55.70186,14.3008 55.70186-45.7089 0-48.658 8.50765-64.9223-46.90683-51.4225-22.93683,5.5878-32.78795,4.0224-52.77019-5.7136z" fill="#666" stroke="#000" stroke-width="1.0129"/>
<path d="m23.29714,1229.1738c6.6567-1.6642-2.2448-78.0269-8.5715-88.5714-8.9005-14.8343-74.99525-20.0189-82.85711,11.4285-4.39528,17.5812-38.80642,93.9874-5.71428,85.7143 32.09941-8.0248 64.88394-2.1196 97.14286-8.5714h3e-005z" fill="#808080" stroke="#000"/>
<path d="m-291.42857,1052.3622c-2.00496.5012 0,70.8706 0,85.7143 0,29.1855 15.905,20 42.85714,20 46.31431,0 28.57143-7.6015 28.57143-48.5714 0-23.6904-1.1637-65.1846-8.57143-80-4.67004-9.3401-50.37087,5.1854-57.14286,8.5714" fill="#999" stroke="#000"/>
<path d="m-140,998.07647c-2.59501-5.19003-2.85714,39.67453-2.85714,77.14283 0,6.6822 88.57143,30.42 88.57143-2.8571 0-23.3714 27.25738-77.14287-2.85714-77.14287-27.39852,0-55.91573-2.53114-82.85714,2.85714z" fill="#808080" stroke="#000"/>
<path d="m302.85715,1058.0765c-23.80952,0 0,47.619 0,71.4286 0,17.8156 63.85335,8.5714 80,8.5714 1.18261,0 1.04027-39.4871 5.71429-62.8571 7.72486-38.6244-17.54657-28.4908-45.71429-22.8572-15.56821,3.1136-23.9904-.6896-40,5.7143z" fill="#b3b3b3" stroke="#000"/>
<path d="m-200,1166.6479c-.97627.1953 0,53.7492 0,65.7143 0,10.9019 45.36652,5.7143 54.28571,5.7143 33.3624,0 50.63827,9.6658 57.14286-22.8572 4.89415-24.4708 19.27393-65.7143-11.42857-65.7143-30.44434,0-66.15995-4.1743-94.28571,2.8571" fill="#b3b3b3" stroke="#000"/>
<path d="m-52.34088,1113.2527c-7.01761,23.7467 31.05336,9.1769 54.80004,16.1945 33.71144,9.9624 24.25455.4904 25.34698-25.2817 1.10943-26.1742 7.82746-27.4797-22.04282-36.307-16.75112-4.9502-49.48824-24.0873-55.29894-4.4247-5.12902,17.3559-9.85795,27.0621-2.80531,49.8189h4e-005z" fill="#ccc" stroke="#000"/>
<path d="m-282.85714,1163.7908c-4.00715,10.5284-2.85714,33.6831-2.85714,57.1429 0,23.8856 48.00682,1.0299 71.42857,5.7142 15.36525,3.0731 11.42857-42.1481 11.42857-60 0-16.1284-64.99207,3.2905-80-5.7142v2.8571z" fill="#666" stroke="#000"/>
<path d="m-357.14285,1160.9336c0-24.4505-10.55597,74.2857 11.42857,74.2857 53.36504,0 57.14286,6.9139 57.14286-42.8571 0-32.1921 9.22686-45.7143-22.85715-45.7143h-34.28571" fill="#808080" stroke="#000"/>
<path d="m-442.85715,1126.6479c-.5546,0-5.61553,62.4621-14.28571,97.1429-2.79624,11.1849 94.28571,17.5361 94.28571-8.5715 0-32.635 12.99625-89.8609-5.71429-108.5714-7.60812-7.6081-53.75208,4.1523-60,5.7143" fill="#808080" stroke="#000"/>
<path d="m-551.42857,1172.3622c-6.17657-6.1766 5.71429,34.0023 5.71429,68.5714 0,.1211 66.67428-8.8114 77.14285-11.4285 18.8479-4.712 10.23374-51.1688 11.42857-57.1429 4.4982-22.491-37.74845-14.1343-59.99999-8.5714-10.64768,2.6619-22.85367,3.9986-34.28572,8.5714z" fill="#999" stroke="#000"/>
<path d="m891.42857,1152.3622c-7.39006,1.8475-2.41489,67.4833 1e-005,77.1429 .00574.0229 73.98773-5.7143 105.71428-5.7143h-2.85715c20.02269,0 11.42859-39.9774 11.42859-60 0-31.8895-24.70538-20-54.28573-20-23.40829,0-38.86373-1.9967-60,8.5714z" fill="#999" stroke="#000"/>
<path d="m-640,1186.6479c-16.87623,0-2.59052,48.5714 14.28571,48.5714 20.78828,0 63.31223,9.6083 68.57143-11.4285 5.72828-22.9132 11.14084-45.7143-8.57143-45.7143-25.66014,0-52.08817-4.7471-74.28571,8.5714z" fill="#999" stroke="#000"/>
<path d="m-354.28571,1083.7907c-9.77479,0 1.08726,58.4324 2.85714,62.8571 2.26741,5.6686 40.42428-5.7142 45.71429-5.7142 15.17353,0 7.0252-53.8656 5.71428-57.1429-7.16198-17.905-35.37595-3.782-54.28571,0z" fill="#999" stroke="#000"/>
<path d="m27.4603,944.14061c-17.38915-10.70687-61.03543-11.59001-96.32589-11.66808-25.88672-.05726-81.6331-11.58745-80.1567,8.41393 1.53934,20.85416-5.58998,38.43694 17.86056,42.99575 38.66472,7.51647 96.93421,11.66942 136.72139,11.75743 24.08823.05328 28.90116-16.60421 33.9747-37.15359 1.3325-5.39699-8.04936-9.56363-12.07405-14.34544z" fill="#808080" stroke="#000" stroke-width="1.13503"/>
<path d="m94.28571,1012.3622c-12.91636-10.6438-46.82895-11.4286-74.28571-11.4286-20.14043,0-62.85714-11.38055-62.85714,8.5714 0,20.8026-6.55759,38.3606 11.42857,42.8571 29.65519,7.4138 74.759,11.4286 105.71429,11.4286 18.74118,0 23.44314-16.6297 28.57143-37.1428 1.34687-5.3875-5.71429-9.5238-8.57143-14.2857z" fill="#808080" stroke="#000"/>
<path d="m-437.14285,918.07647c-12.91636-10.64379-46.82895-11.42857-74.28571-11.42857-20.14044,0-62.85715-11.38057-62.85715,8.57143 0,20.80264-6.55759,38.3606 11.42857,42.85714 29.65519,7.41379 74.759,11.42857 105.71429,11.42857 18.74118,0 23.44314-16.62969 28.57143-37.14286 1.34687-5.38748-5.71429-9.52381-8.57143-14.28571z" fill="#808080" stroke="#000"/>
<path d="m447.65885,1063.9855c8.85626-14.2017 5.18279-47.9239 1.57875-75.14311-2.64369-19.96618 3.0313-63.80713-16.74807-61.18818-20.62264,2.73062-38.88945-1.46553-40.98618,16.95523-3.45702,30.37176-1.51662,75.61226 2.54666,106.29976 2.46002,18.579 19.56301,21.0574 40.57184,23.4488 5.51767.628 8.69134-6.915 13.037-10.3725z" fill="#808080" stroke="#000"/>
<path d="m591.42857,1043.7908c-12.91636-10.6438-46.82895-11.4286-74.28571-11.4286-20.14043,0-62.85714-11.3806-62.85714,8.5714 0,20.8027-6.55759,38.3606 11.42857,42.8572 29.65518,7.4138 74.75899,11.4285 105.71429,11.4285 18.74118,0 23.44313-16.6296 28.57143-37.1428 1.34687-5.3875-5.71429-9.5238-8.57143-14.2857h-1e-005z" fill="#808080" stroke="#000"/>
<path d="m599.84082,923.44473c12.35228,3.84605-5.25034,29.37184-4.38919,85.75387 .34461,22.5623.61768,38.9662 6.52839,54.3051 8.33633,21.6337 44.89641,1.1535 48.41997-1.3799 1.44852-1.0414 1.9256-60.4883 1.83806-66.22007-.0674-4.41286-6.42463-66.1401-20.82897-57.78973l-31.56826-14.66927z" fill="#666" stroke="#000" stroke-width="1.16535"/>
<path d="m1015.2663,1006.6177c2.8319,0-4.5281,56.6225 5.0378,100.043 13.014,59.0721 2.2543,37.1588-27.70776,37.1588-27.21977,0-27.70773-3.8467-27.70773-37.1588v-20.0086c0-24.1971-2.51888-49.5675-2.51888-74.3177 0-8.5099 32.30501-5.7167 40.30217-5.7167h12.5944z" fill="#808080" stroke="#000" stroke-width=".93914"/>
<path d="m174.28571,880.93361c-21.92546,0 2.85714,43.78883 2.85714,65.71429 0,40.34497 45.00153,22.85714 80,22.85714 10.4147,0 22.87668-60.09766 25.71429-74.28571 3.50964-17.54822-59.11314-8.57144-77.14286-8.57144-13.10964,0-17.04684-.92038-31.42857-5.71429v1e-005z" fill="#999" stroke="#000"/>
<path d="m-373.1125,955.94659c-25.46444.55047.00635,47.69311.00951,71.53961 .00778,58.5426-.95082,65.6242 51.95355,44.6623 32.46889-12.8649 39.46372-29.9502 18.32528-69.0743-9.37304-17.34813-1.39082-34.91386-15.28476-45.45505-2.16953-1.64601-52.71542-.43645-55.00358-1.67256z" fill="#808080" stroke="#000" stroke-width="1.03497"/>
<path d="m-637.40199,1072.0295c-3.48592-3.2253-2.79008,53.7728-5.47778,105.5723-1.0653,20.5314 40.12818-12.2228 60.65964-11.1575 33.29775,1.7277 62.42415,9.9747 63.95708-19.5694 1.90455-36.706 22.64676-81.7936-15.67973-83.7822-26.7743-1.3892-57.79429-6.349-82.89388-1.4401-17.38131,3.3994 13.72012-14.2503-20.56533,10.3769z" fill="#4d4d4d" stroke="#000"/>
<path d="m868.57143,1040.9336c-2.22171.5554 0,76.4127 0,91.4286 0,30.2743 14.26523,16.5755 40,11.4285 13.06022-2.612 29.4887,0 42.85714,0 14.1998.0001 8.57143-100.9143 8.57143-114.2857 0-13.0911-72.96702-5.3297-82.85714-2.8571-11.12684,2.7817-3.92234-8.9598-8.57143,14.2857z" fill="#b3b3b3" stroke="#000"/>
<path d="m781.37311,1055.2423c-10.68061,2.4384-15.63585,55.1441-15.63585,82.8169 0,11.128 80.11646,13 84.43365,11.423 5.10303-1.864 19.26045-63.8654 12.50869-88.5285-.47062-1.7191-48.17095,0-53.16193,0-19.56802,0-15.86004,8.3626-25.01738,0" fill="#b3b3b3" stroke="#000" stroke-width="1.04593"/>
<path d="m-722.85715,1120.9336c-22.85714,0 0,45.7143 0,68.5714 0,60.7875 5.06535,60.1623 62.85714,45.7143 17.86486-4.4662 13.86343-89.3171 17.14286-105.7143 1.90905-9.5452-54.30327-5.7143-65.71429-5.7143-4.85621,0-9.52381-1.9047-14.28571-2.8571z" fill="#b3b3b3" stroke="#000"/>
<path d="m-710.41088,1032.2093c-23.37216-4.5426-9.08529,46.7443-13.62793,70.1165-3.70104,19.042 56.38961,10.9007 70.66159,10.8233 17.55397-.0953 11.43251-75.9532 9.65397-79.6207-6.90834-14.2456-57.66088-6.0504-66.68763-1.3191z" fill="#4d4d4d" stroke="#000"/>
<path d="m39.95481,913.56968c-.08947-.09548 0,33.49281 0,68.76525 0,23.13047 3.76284,16.04522 28.63609,16.04522 22.71012,0 11.45444-72.46647 11.45444-82.51829 0-28.165 11.78983-43.55133-22.90887-43.55133-17.76455,0-17.17955,41.24902-20.04527,55.0122" fill="#666" stroke="#000" stroke-width=".8967"/>
<path d="m955.14815,809.71257c-50.94686,0 0,47.43209 0,71.14813 0,30.35308-23.72283,39.84296 36.68174,39.84296 40.40891,0 42.79541-68.20215 42.79541-82.53184 0-28.19416 24.3223-34.1511-42.79541-34.1511-12.88865,0-24.45449,3.79457-36.68174,5.69185z" fill="#4d4d4d" stroke="#000" stroke-width="1.45992"/>
<path d="m-633.52744,972.3741c-25.36298,0-3.04356,24.75422-3.04356,48.5563 0,43.5109 7.20998,39.9876 51.74048,39.9876 38.38285,0 76.08893,10.5369 76.08893-28.5625 0-90.16803 25.40826-71.40643-85.2196-71.40643-25.65502,0-12.25041,20.52215-33.47913,8.56877l-6.08712,2.85626z" fill="#808080" stroke="#000" stroke-width="1.03195"/>
<path d="m451.14604,878.12162c-31.3896,0 0,51.39528 0,77.09292 0,100.15236 11.77496,68.52706 129.04616,68.52706 21.16094,0 12.34709-84.83564 13.95093-111.35645 3.45038-57.05491-41.22344-17.13176-52.316-28.55294-25.35903-26.11027-51.74597-16.33556-90.68108-5.71059h-1e-005z" fill="#666" stroke="#000" stroke-width="1.1045"/>
<path d="m111.42859,998.07648c-24.7619,0 0,49.52382 0,74.28572 0,32.8202 17.19842,24.2718 45.71429,17.1429l11.42856-2.8572c32.63721-8.1593 32.5393,10.9535 45.71429-28.5714 8.02797-24.0839 9.53539-70.4299 5.71428-85.71431-1.2483-4.99321-71.62972.76458-80,2.85714-24.99472,6.24868-30.87127,23.31712-42.85714,25.71427" fill="#666" stroke="#000"/>
<path d="m-502.85714,980.93361c-3.68021.92005-5.71429,93.50109-5.71429,111.42859 0,16.6053 96.07788,5.7143 114.28571,5.7143 28.58468,0 11.42858-45.8225 11.42858-65.7143v-60.00002c0-22.85714-45.71429,0-68.57143,0h-48.57143l0,0" fill="#b3b3b3" stroke="#000"/>
<path d="m292.93754,889.48711c-22.74747,0 0,51.45858 0,77.18787 0,9.61678 74.55439,0 88.46238,0 1.35496,0 22.9476-97.19954 0-97.19954-26.94426,0-51.37494,8.57643-78.35239,8.57643" fill="#ccc" stroke="#000" stroke-width=".94082"/>
<path d="m-506.28613,1109.4747c-8.97539,0 4.90431,40.1257 7.27428,42.9225 6.88218,8.1218 37.66851-5.0576 43.64566-8.5845 20.08917-11.8538 5.22363-40.061-9.69904-40.061-15.75939,0-25.93433,2.115-41.2209,5.723z" fill="#808080" stroke="#000" stroke-width=".92193"/>
<path d="m768.57143,995.21932c-.90959,0-.65025,48.82758 2.85714,62.85718 3.01972,12.0788 83.68674-3.6868 88.57143-8.5715 11.35558-11.3556 22.59461-80-11.42857-80h-77.14286" fill="#b3b3b3" stroke="#000"/>
<path d="m868.57143,935.21933c-25.71429,0 0,28.57143 0,54.28571 0,33.39446 79.14128,17.14286 108.57143,17.14286 46.04364,0 37.14284-14.4733 37.14284-68.57143 0-15.72209-73.44249-8.57143-91.42855-8.57143h-51.42858" fill="#b3b3b3" stroke="#000"/>
<path d="m235.30414,972.38472c-28.118,0 3.12208,51.38458 3.12208,77.10328 0,25.4511 99.88412-2.4448 124.88325-5.7114 4.12094-.5385 8.32555,0 12.48833,0 26.204,0 16.83775-71.39188-9.36625-71.39188h-90.54035c-7.65739,0-14.67677,1.21435-21.85457,2.85568" fill="#b3b3b3" stroke="#000" stroke-width="1.04507"/>
<path d="m659.35984,1009.5015c-.94135,0 .53642,48.0907-7.9802,80.1788-.97507,3.6738 71.83358-5.0111 85.12213-5.0111 27.58716,0 29.26073-65.071 29.26073-85.19005 0-22.5503-47.8812,0-71.82179,0-12.06027,0-23.05391,6.68155-34.58086,10.02235h-1e-005z" fill="#666" stroke="#000" stroke-width=".90359"/>
<path d="m1096.0713,806.81439c-9.1344,0-28.2616,5.57494-41.8946,17.3104-8.0171,6.90112-17.0369,32.81722-25.1369,43.27602-9.8659,12.73908-6.2361,54.50741-8.8733,103.86243-2.9667,55.52416 8.6488,99.72106 5.7143,149.99556-3.0728,52.6438-7.4104,118.3157 8.1865,118.3157 13.8056,0 29.2934,7.6157 41.8946-8.6552 7.7115-9.9573 44.6823-.0837 52.5268-.0837 10.38,0 3.2472-142.023 6.3181-181.6755 5.2202-67.40305-3.544-119.85393-3.544-190.41443 0-31.12896-6.9892-48.73897-12.5269-48.73897-3.5767,0-19.8717,8.34803-22.6646-3.19224v-7e-005z" fill="#666" stroke="#000" stroke-width="1.33296"/>
<path d="m752.8815,898.09188c-38.33308,10.30053-79.8942,5.37149-118.5467,11.42473-3.506.54906 10.61896,45.58702 12.15864,54.26746 5.72555,32.27971 17.94981,25.70565 51.6742,25.70565 51.4891,0 64.5139,11.08118 75.99148-42.84274 3.79309-17.82068 1.23249-29.6418-3.03966-45.69892-1.49479-5.61825-12.07478-2.85618-18.23796-2.85618z" fill="#999" stroke="#000" stroke-width="1.03127"/>
<path d="m864.75947,922.31052c-5.84995,3.24496 47.91387,1.06911 91.22222-5.24664 14.67614-2.14023-6.25738-46.59322-14.02895-66.43426-11.34638-28.9676-105.24343-15.1895-114.83995-7.42211-2.56904,2.07936 12.08223,76.68846 12.66812,86.77393 1.59794,27.50728 20.16134-.32127 24.97856-7.67092z" fill="#b3b3b3" stroke="#000" stroke-width="1.11537"/>
<path d="m174.29907,1129.4882c-13.72332,0 34.25545-9.7579 34.25545-24.4514 0-23.6604-1.92593-18.3385-25.6916-18.3385-19.01322,0-11.7173,25.9081-8.56386,42.7899h1e-005z" fill="#666" stroke="#000" stroke-width="1.03383"/>
<path d="m-251.42857,975.21933c-14.91718,0-35.45633,4.87102-48.57143,11.42857-13.4687,6.73435 3.63777,32.2092 14.28571,42.8571 8.45792,8.458 38.36638-4.8974 40-5.7142 14.63352-7.3168 12.49241-48.57147-5.71428-48.57147z" fill="#808080" stroke="#000"/>
<path d="m-413.99188,964.81362c-6.37961-14.13024 34.6298,3.76378 46.01751-6.75682 24.03724-22.20695-25.75353-32.47247-35.87087-32.87291-24.07935-.95304-25.13193,1.68148-20.88831,22.0483 1.40087,6.72332 7.16111,11.72095 10.74166,17.58142l1e-005,1e-005z" fill="#4d4d4d" stroke="#000"/>
<path d="m-751.27536,1027.2509c-13.28923-22.9625 72.1366,6.1163 95.85809-10.9804 50.07148-36.08754-53.64661-52.76962-74.72184-53.42035-50.15919-1.54875-52.35178,2.73251-43.512,35.82982 2.91813,10.92583 14.91716,19.04723 22.37573,28.57083l2e-005,.0001z" fill="#808080" stroke="#000" stroke-width="1.83987"/>
<path d="m386.11892,874.18552c19.1362-6.64095-5.0972,36.04839 9.15057,47.90258 30.0743,25.02193 43.97662-26.80849 44.51891-37.34028 1.29068-25.06575-2.27718-26.16145-29.85943-21.744-9.10521,1.45827-15.87335,7.45447-23.81005,11.1817z" fill="#808080" stroke="#000" stroke-width="1.18733"/>
<path d="m792.37109,973.23261c-6.62943-23.15245 35.98594,6.16699 47.8196-11.07107 24.97857-36.38621-26.76206-53.20633-37.2756-53.86243-25.02232-1.56156-26.11612,2.75512-21.70631,36.12625 1.45573,11.0162 7.44155,19.20484 11.16231,28.80725z" fill="#808080" stroke="#000" stroke-width="1.30486"/>
<path d="m-727.20313,899.02922c-8.32358-14.08044 45.18215,3.75053 60.0399-6.733 31.36186-22.1287-33.60109-32.35805-46.80137-32.75707-31.41678-.94968-32.7901,1.67555-27.25337,21.97061 1.82774,6.69963 9.34323,11.67963 14.01485,17.51946h-1e-005z" fill="#808080" stroke="#000" stroke-width="1.14023"/>
<path d="m-239.27174,891.91851c17.65043,13.05976 40.64462-3.15604 59.74831,4.28513 12.80253-5.06657 29.0889,2.85858 40.32738-3.5239-2.37322-11.93189-16.51971-17.34377-24.14606-26.07437-15.61039-12.55968-41.53912-16.31337-54.98474,1.36234-7.56727,6.86289-21.70283,10.00859-24.12651,20.15649 .71356,1.51895 1.94812,2.69575 3.18162,3.79431z" fill="#808080" stroke="#000"/>
<path d="m34.28571,880.93361c-3.11656-6.23313-56.97084-2.85714-71.42857-2.85714-16.86542,0-82.85714-7.75069-82.85714,11.42857 0,21.71736-17.10281,31.43858 5.71429,37.14286 28.42494,7.10623 110.08422,2.85714 139.99999,2.85714 15.51169,0 11.42857-19.70628 11.42857-34.28571" fill="#b3b3b3" stroke="#000"/>
<path d="m-430.424,853.76537c-1.12728-3.69844-169.69967-4.99879-195.79972-5.76761-67.35091-1.98394-40.77479,6.48685-32.61015,41.78683 4.72665,20.4358 65.52455,13.32945 92.89279,14.13563 67.91999,2.0007 152.13711,8.37508 213.01341,3.42484 28.75472-2.33822-7.49225-38.42064-13.27333-57.38755-.29083-.95414-88.42532-2.38694-89.38683-2.63304" fill="#999" stroke="#000" stroke-width="1.219"/>
<path d="m468.53188,825.35993c-.5619-2.42993-94.35103-4.89951-111.26542-5.77785-10.9623-.56926-8.80557,36.05287-9.50289,44.23029-1.20405,14.11961 36.30233-.35106 54.39607.58853 19.3498,1.0048 99.07137,14.35828 100.61299-3.72007 1.63703-19.19722 3.6284-37.90408-19.97595-34.58015-4.68971.66039-9.50986-.49384-14.2648-.74075z" fill="#808080" stroke="#000" stroke-width=".88404"/>
<path d="m-802.85714,903.79076c.67498,2.6999 95.72639,0 111.42857,0 34.07733,0 79.16752-3.02364 108.57143,2.85714 17.71924,3.54385-4.36533,38.65104-17.14286,51.42857-13.21607,13.21607-100.92018,0-122.85714,0-31.2751,0-60.42682-2.85714-91.42857-2.85714h-11.42857c-3.00828,0-15.03482-51.42857 22.85714-51.42857z" fill="#b3b3b3" stroke="#000"/>
<path d="m85.71428,912.36218c-4.91077,0 3.47579,68.68948 5.71429,74.28571 6.4327,16.08171 35.69411-11.34786 37.14286-17.14285 1.1778-4.71122 1.90476-9.52381 2.85714-14.28572 6.05846-30.29229 10.96671-34.28571-20-34.28571-8.31549,0-5.5219-1.84063-8.57143-2.85714" fill="#ccc" stroke="#000"/>
<path d="m594.28572,855.21932c0,12.47143-1.37685,51.63547 2.85714,68.57143 .77389,3.09555 33.31507-20 65.71429-20 41.24675,0 54.28571,11.72695 54.28571-28.57143 0-33.78339 10.08649-57.52162-25.71429-48.57142-17.93047,4.48261-33.47891,7.65544-48.57142,11.42856-15.57253,3.89313-34.77655,6.10695-48.57143,17.14286z" fill="#999" stroke="#000"/>
<path d="m141.23042,874.2478c-7.00837,4.02556-3.42896,47.35606-.74515,64.38753 3.16909,20.11108 5.18549,36.32191 19.66114,28.00716 15.33748-8.80977 11.78885-49.59708 9.18041-66.15032-3.75993-23.86055-.105-40.85285-18.88856-36.9275-4.09879.85656-6.13856,7.12208-9.20784,10.68313z" fill="#999" stroke="#000" stroke-width=".86846"/>
<path d="m308.37012,826.73369c-29.58377,0-90.36321-2.84689-133.92765-2.84689-28.30879,0-15.96826,33.41826-12.55572,42.70341 3.30257,8.98594 62.55597,9.64915 75.33431,11.38757 29.81621,4.05633 60.35615-.59954 83.70478-8.54068 32.78473-11.15046 24.54739-34.93009 16.74095-45.55031-4.41162-6.00178-19.53111,1.89793-29.29667,2.8469z" fill="#4d4d4d" stroke="#000" stroke-width="1.20813"/>
<path d="m-759.45724,867.82208c9.07066-4.16804-60.90026-2.28356-111.53868-1.80984-27.00119.25259-31.467,3.77648-22.06811,20.17937 7.48711,13.06646 77.20833,12.96239 92.58987,16.25347 25.04653,5.35902 55.70759-1.56903 66.8034-9.18477 9.00347-6.17963-21.61512-22.69712-25.78648-25.43823z" fill="#b3b3b3" stroke="#000" stroke-width="1.05525"/>
<path d="m-859.19585,1251.1291c-30.70497-18.7145-28.15581-54.4999-31.80942-82.8968 4.84072-21.8318.76517-45.0141 6.14502-66.313 16.76208-26.8001 57.51522-33.7047 89.83807-26.2665 36.75305,6.5872 57.8807,38.5308 59.38535,68.3151 7.97917,28.1705 19.95664,63.6864-5.93457,87.7162-36.73738,14.3487-80.33808,7.6791-117.13565,19.7237l-.4888-.2787z" fill="#808080" stroke="#000" stroke-width="1.08767"/>
<path d="m-1011.5367,841.79159c-9.0823.1322-4.797,97.16329-4.3841,117.14309 .3423,16.56263 101.01074,7.09641 122.62965,6.78172 2.34968-.03421-9.28419-90.21165-5.40733-97.01142 19.23443-33.73585-19.75266-31.12398-44.86795-30.7584-24.69015.35941-41.09213,7.20371-67.97027,3.84502v-1e-005z" fill="#999" stroke="#000" stroke-width="1.09081"/>
<path d="m-885.71428,906.6479c-17.79194,0-3.50623,51.42857 14.28571,51.42857 42.40789,0 37.14286-5.19287 37.14286-48.57143 0-23.03502-37.41283-11.26659-51.42857-2.85714z" fill="#808080" stroke="#000"/>
<path d="m-892.72382,978.16327c0-10.4163-10.81091,52.49743 4.6661,99.77533 .4214,1.2873 77.08712-5.7015 83.98971-5.7015 22.5723,0 20.17221-59.6909 23.33048-71.268 5.64737-20.7014 22.73839-45.6116-13.99829-45.6116-52.85569,0-73.54903-2.07896-97.98801,22.80579l1e-005-2e-005z" fill="#b3b3b3" stroke="#000" stroke-width="1.2765"/>
<path d="m-337.8276,904.03951c-45.45356,0-37.88964,50.88902 7.56393,50.88902 55.0413,0 147.75914,8.28527 173.9704-11.30867 50.93568-38.07643 40.3929-45.23469-52.94751-45.23469-47.3151,0-84.05729-1.00317-128.58682,5.65434z" fill="#b3b3b3" stroke="#000" stroke-width="1.61852"/>
<path d="m-722.94776,1074.4337c-4.07497-19.4423 12.12402-33.808-10.55538-50.3614-9.97299-7.2791-26.46993-.2936-39.01041,2.3348-4.72848.9911 2.50246,37.0676 3.75115,43.0252 3.66098,17.4672 9.7838,26.0998 20.23586,33.7286 10.38734,7.5816 22.94531,20.8126 23.28896-1.9604 .23851-15.8043-4.45705-4.097 2.28982-26.7668z" fill="#808080" stroke="#000" stroke-width=".95002"/>
<path d="m-342.15517,861.90964c-23.10792-2.77125 0,22.85234 0,34.27851 0,6.76882 65.14117,2.98075 83.88466,2.98075 17.00871,0 15.5342-27.34555 15.5342-32.78815 0-28.21132-1.58207-16.39407-49.70943-16.39407-32.79035,0-55.85575-5.7676-49.70943,11.92296z" fill="#b3b3b3" stroke="#000" stroke-width=".75314"/>
<path d="m721.88073,841.2586c-2.34958,13.17464-8.85443,26.34613-7.78604,39.68777 7.77987,14.57444 30.07886,11.93614 45.41753,15.37824 22.30655,3.02148 49.81033,5.12122 66.53786-9.47276 5.15469-5.26216-4.19428-11.30718 2.26768-15.2645 8.16021-9.01201-4.16953-17.26805-13.29321-21.04498-17.02638-6.68565-34.91616-12.50092-53.24198-15.73941-12.19569-.75487-25.51607-1.68545-37.05268.92727-2.09496,1.3021-2.53205,3.47759-2.84916,5.52837z" fill="#808080" stroke="#000" stroke-width=".68988"/>
<path d="m576.71447,835.84322c-8.77725.64152-16.90408,5.05889-26.07476,3.89672-11.45395,2.43248-20.51972-1.3212-31.83828,3.75272-8.70407,5.16628-6.1488,21.5562.89397,27.35232 11.7972,12.20447 28.21893,12.53656 42.81082,13.45948 14.22795-.92686 30.18785-4.01547 28.68051-23.28291-1.00036-8.60856-7.47222-25.7879-14.47226-25.17833z" fill="#b3b3b3" stroke="#000" stroke-width=".42681"/>
<path d="m-914.89118,965.00904c21.72978,4.28845 18.13243,57.02346 18.04661,90.06536 2.75351,37.6522 9.97401,74.544 6.66852,113.6022-1.68837,29.0805 10.43597,63.9472-1.67119,80.348-43.78801-17.8295-100.24984,19.3243-148.09276,4.6485-25.7019-32.9374-26.171-110.1436-7.4686-154.3052 13.7384-52.6185 5.6524-131.11732 39.5423-135.57479 17.34627,7.94001 59.21313,23.33009 75.6959,4.172 4.72181-2.20232-1.85883,7.90139 2.99352,8.47253l14.2857-11.4286z" fill="#ccc" stroke="#000" stroke-width="1.44423"/>
<path d="m99.60168,830.47389-164.39551,2.27718c-47.45937.65741-95.64441-1.52628-143.44835-.8641-20.14182.279-63.76075,37.94799-2.98446,37.10612 56.13879-.77763 121.93749,6.86435 175.0073,6.12923 24.30924-.33672 52.85888,4.19127 76.95109-1.06591 16.11285-3.516 39.27567-.54404 55.96443-.77521 17.80476-.24664 40.04543-.87555 52.42717-3.57737 24.97315-5.44941 15.63854-34.43028-31.95382-33.77103-6.27871.08697-11.71191-3.63928-17.56785-5.45892v1e-005z" fill="#999" stroke="#000" stroke-width="1.10528"/>
</g>
</svg>
